<?xml version="1.0" standalone="no"?>
<!DOCTYPE svg PUBLIC "-//W3C//DTD SVG 20010904//EN"
 "http://www.w3.org/TR/2001/REC-SVG-20010904/DTD/svg10.dtd">
<svg version="1.0" xmlns="http://www.w3.org/2000/svg"
 width="600.000000pt" height="600.000000pt" viewBox="0 0 600.000000 600.000000"
 preserveAspectRatio="xMidYMid meet">

<g transform="translate(0.000000,600.000000) scale(0.100000,-0.100000)"
fill="#000000" stroke="none">
<path d="M0 3000 l0 -3000 3000 0 3000 0 0 3000 0 3000 -3000 0 -3000 0 0
-3000z m2240 869 c36 -6 82 -15 103 -20 l38 -10 -6 -157 c-7 -180 -10 -202
-29 -202 -14 0 -26 30 -26 68 0 39 -47 118 -96 161 -102 89 -284 96 -393 14
-19 -15 -44 -50 -58 -81 -21 -45 -25 -64 -20 -113 9 -101 75 -186 244 -314
l83 -62 -78 -13 c-42 -6 -129 -23 -192 -36 l-115 -23 -38 42 c-49 54 -102 161
-117 234 -18 86 -9 197 22 265 96 209 342 298 678 247z m594 -24 c9 -13 81
-161 160 -327 l144 -303 -141 -3 c-137 -2 -142 -2 -159 20 -18 23 -18 23 -18
2 0 -12 -7 -25 -16 -28 -18 -7 -134 -8 -134 -1 0 6 24 175 61 424 17 113 35
213 40 223 14 26 44 22 63 -7z m1326 9 c12 -13 125 -762 117 -770 -4 -4 -259
45 -265 50 -2 2 -7 32 -12 66 -8 57 -16 80 -23 69 -1 -2 -15 -30 -30 -63 l-28
-59 -67 7 c-36 4 -68 8 -69 10 -4 3 315 677 328 693 15 17 34 17 49 -3z m-540
-778 c385 -42 650 -92 681 -127 9 -10 18 -16 21 -14 2 2 3 -17 2 -43 -2 -31 0
-40 5 -27 8 19 8 19 20 -3 10 -20 9 -22 -11 -22 -17 0 -19 -3 -9 -9 8 -6 10
-11 3 -15 -7 -4 -9 -31 -5 -74 8 -89 8 -103 -1 -127 -6 -15 -6 -17 3 -5 9 13
10 13 15 0 14 -45 14 -70 -1 -134 -9 -39 -17 -106 -18 -150 -2 -60 -6 -81 -18
-88 -9 -5 -19 -24 -23 -43 -3 -19 -11 -35 -18 -36 -6 0 5 -7 24 -15 33 -13 29
-14 -72 -11 -113 3 -149 15 -108 37 21 11 22 17 17 89 -6 78 -74 581 -79 587
-3 2 -221 24 -249 24 -9 0 -25 -21 -39 -52 -26 -57 -130 -275 -254 -531 -42
-87 -83 -160 -92 -164 -8 -3 -22 1 -29 8 -19 19 -290 543 -345 668 l-45 101
-110 -2 -110 -3 -37 -280 c-39 -293 -45 -384 -28 -415 11 -21 55 -35 133 -45
31 -4 47 -11 44 -18 -5 -17 -539 -17 -544 -1 -2 7 19 14 55 18 60 7 85 23 110
72 13 24 30 125 72 404 16 113 33 218 36 234 l6 29 -132 -6 c-73 -4 -135 -8
-137 -11 -2 -2 5 -21 16 -42 94 -181 56 -434 -83 -562 -104 -96 -223 -142
-388 -150 -114 -5 -154 1 -128 19 12 9 11 9 -5 4 -11 -5 -31 -9 -45 -10 l-25
-2 25 5 25 5 -25 7 c-23 7 -22 8 9 9 28 1 32 3 21 16 -7 8 -16 12 -21 10 -10
-7 -31 30 -22 39 8 7 -29 36 -38 30 -7 -4 -22 26 -16 32 2 2 12 -4 23 -14 33
-31 143 -55 226 -50 121 8 212 61 261 153 17 32 22 57 21 120 0 68 -4 89 -30
139 -16 33 -56 87 -89 121 -102 104 -84 97 -222 80 -88 -11 -129 -12 -149 -5
-22 9 -25 8 -16 -2 8 -10 4 -13 -16 -14 -15 -1 -21 1 -14 3 10 4 8 9 -5 19
-17 12 -16 13 8 14 14 0 28 3 31 6 11 10 -4 43 -21 47 -10 3 -6 5 9 6 l25 2
-25 15 c-24 14 -24 15 -3 11 13 -3 26 0 30 5 3 6 1 8 -5 4 -6 -3 -13 -3 -16 2
-3 5 0 9 7 10 7 0 46 10 87 21 152 41 533 94 820 115 147 10 892 -3 1030 -18z
m-1943 -212 c-3 -3 -12 -4 -19 -1 -8 3 -5 6 6 6 11 1 17 -2 13 -5z m2700 -50
c-3 -3 -12 -4 -19 -1 -8 3 -5 6 6 6 11 1 17 -2 13 -5z m-13 -410 c4 -9 4 -19
1 -22 -3 -3 -5 1 -5 9 0 11 -2 11 -10 -1 -8 -12 -10 -11 -10 8 0 26 15 29 24
6z m-11 -64 c-3 -12 -8 -19 -11 -16 -5 6 5 36 12 36 2 0 2 -9 -1 -20z m-2730
-29 c-4 -4 -11 -10 -14 -14 -4 -5 -6 3 -5 16 1 20 4 23 14 15 7 -6 9 -14 5
-17z"/>
<path d="M3333 2819 c19 -41 59 -123 88 -184 l53 -109 83 173 c46 96 81 176
78 179 -2 3 -79 7 -170 10 l-166 5 34 -74z"/>
<path d="M4337 2546 c-4 -10 -7 -25 -6 -34 0 -11 4 -9 10 7 5 13 8 29 6 35 -2
5 -6 2 -10 -8z"/>
<path d="M4321 2454 c0 -11 3 -14 6 -6 3 7 2 16 -1 19 -3 4 -6 -2 -5 -13z"/>
</g>
</svg>
